# Blender v3.2.1 OBJ File: 'billboards.blend'
# www.blender.org
mtllib billboard _1_by_2.mtl
o Plane_1_2_Plane
v 0.000000 1.000000 2.000000
v 0.000000 -1.000000 2.000000
v 0.000000 1.000000 -2.000000
v 0.000000 -1.000000 -2.000000
v -0.000809 1.073177 2.146353
v -0.000809 -1.073177 2.146353
v -0.000809 1.073177 -2.146353
v -0.000809 -1.073177 -2.146353
v 0.025468 1.000000 -2.000000
v 0.025468 1.000000 2.000000
v 0.025468 -1.000000 2.000000
v 0.025468 -1.000000 -2.000000
v 0.024659 1.073177 -2.146353
v 0.024659 1.073177 2.146353
v 0.024659 -1.073177 2.146353
v 0.024659 -1.073177 -2.146353
v -0.073450 -1.055898 2.146353
v -0.073450 -1.055898 -2.146353
v 0.097301 -1.055898 2.146353
v 0.097301 -1.055898 -2.146353
v -0.073450 -1.124713 2.146353
v -0.073450 -1.124713 -2.146353
v 0.097301 -1.124713 -2.146353
v 0.097301 -1.124713 2.146353
v -0.183670 -1.124713 2.146353
v -0.183670 -1.124713 -2.146353
v 0.843701 -1.124713 -2.146353
v 0.843701 -1.124713 2.146353
v -0.183670 -1.154887 2.146353
v -0.183670 -1.154887 -2.146353
v 0.843701 -1.154887 -2.146353
v 0.843701 -1.154887 2.146353
v 0.796635 -0.854788 -0.108832
v 0.835472 -0.926345 -0.060000
v 0.852858 -0.824274 -0.088047
v 0.866467 -0.909523 -0.048541
v 0.887605 -0.805416 -0.033631
v 0.885624 -0.899126 -0.018541
v 0.887605 -0.805416 0.033631
v 0.885624 -0.899126 0.018541
v 0.852858 -0.824274 0.088046
v 0.866467 -0.909523 0.048541
v 0.796635 -0.854789 0.108831
v 0.835472 -0.926345 0.059999
v 0.740412 -0.885303 0.088046
v 0.804476 -0.943168 0.048541
v 0.705665 -0.904161 0.033631
v 0.785319 -0.953565 0.018541
v 0.705665 -0.904161 -0.033631
v 0.785319 -0.953565 -0.018541
v 0.740412 -0.885303 -0.088047
v 0.804476 -0.943168 -0.048541
v 0.847727 -0.919694 -0.019192
v 0.835472 -0.926345 -0.023723
v 0.855301 -0.915583 -0.007331
v 0.855301 -0.915583 0.007331
v 0.847727 -0.919694 0.019192
v 0.835472 -0.926345 0.023723
v 0.823216 -0.932997 0.019192
v 0.815642 -0.937108 0.007331
v 0.815642 -0.937108 -0.007331
v 0.823216 -0.932997 -0.019192
v 0.907796 -1.030372 -0.019192
v 0.895540 -1.037023 -0.023723
v 0.915370 -1.026261 -0.007331
v 0.915370 -1.026261 0.007331
v 0.907796 -1.030372 0.019192
v 0.895540 -1.037023 0.023723
v 0.883285 -1.043674 0.019192
v 0.875711 -1.047785 0.007331
v 0.875711 -1.047785 -0.007331
v 0.883285 -1.043674 -0.019192
v 0.902112 -1.080626 -0.019192
v 0.890301 -1.073215 -0.023723
v 0.909412 -1.085206 -0.007331
v 0.909412 -1.085206 0.007331
v 0.902112 -1.080626 0.019192
v 0.890301 -1.073215 0.023723
v 0.878490 -1.065804 0.019192
v 0.871190 -1.061223 0.007331
v 0.871190 -1.061223 -0.007331
v 0.878490 -1.065804 -0.019192
v 0.833188 -1.152759 -0.019192
v 0.822971 -1.143269 -0.023723
v 0.839502 -1.158624 -0.007331
v 0.839502 -1.158624 0.007331
v 0.833188 -1.152759 0.019192
v 0.822971 -1.143269 0.023723
v 0.812755 -1.133779 0.019192
v 0.806441 -1.127914 0.007331
v 0.806441 -1.127914 -0.007331
v 0.812755 -1.133779 -0.019192
v 0.796635 -0.854788 1.089291
v 0.835472 -0.926345 1.138123
v 0.852858 -0.824274 1.110076
v 0.866467 -0.909523 1.149582
v 0.887605 -0.805416 1.164491
v 0.885624 -0.899126 1.179581
v 0.887605 -0.805416 1.231753
v 0.885624 -0.899126 1.216663
v 0.852858 -0.824274 1.286169
v 0.866467 -0.909523 1.246663
v 0.796635 -0.854789 1.306954
v 0.835472 -0.926345 1.258122
v 0.740412 -0.885303 1.286169
v 0.804476 -0.943168 1.246663
v 0.705665 -0.904161 1.231753
v 0.785319 -0.953565 1.216663
v 0.705665 -0.904161 1.164491
v 0.785319 -0.953565 1.179581
v 0.740412 -0.885303 1.110076
v 0.804476 -0.943168 1.149582
v 0.847727 -0.919694 1.178930
v 0.835472 -0.926345 1.174399
v 0.855301 -0.915583 1.190791
v 0.855301 -0.915583 1.205453
v 0.847727 -0.919694 1.217314
v 0.835472 -0.926345 1.221845
v 0.823216 -0.932997 1.217314
v 0.815642 -0.937108 1.205453
v 0.815642 -0.937108 1.190791
v 0.823216 -0.932997 1.178930
v 0.907796 -1.030372 1.178930
v 0.895540 -1.037023 1.174399
v 0.915370 -1.026261 1.190791
v 0.915370 -1.026261 1.205453
v 0.907796 -1.030372 1.217314
v 0.895540 -1.037023 1.221845
v 0.883285 -1.043674 1.217314
v 0.875711 -1.047785 1.205453
v 0.875711 -1.047785 1.190791
v 0.883285 -1.043674 1.178930
v 0.902112 -1.080626 1.178930
v 0.890301 -1.073215 1.174399
v 0.909412 -1.085206 1.190791
v 0.909412 -1.085206 1.205453
v 0.902112 -1.080626 1.217314
v 0.890301 -1.073215 1.221845
v 0.878490 -1.065804 1.217314
v 0.871190 -1.061223 1.205453
v 0.871190 -1.061223 1.190791
v 0.878490 -1.065804 1.178930
v 0.833188 -1.152759 1.178930
v 0.822971 -1.143269 1.174399
v 0.839502 -1.158624 1.190791
v 0.839502 -1.158624 1.205453
v 0.833188 -1.152759 1.217314
v 0.822971 -1.143269 1.221845
v 0.812755 -1.133779 1.217314
v 0.806441 -1.127914 1.205453
v 0.806441 -1.127914 1.190791
v 0.812755 -1.133779 1.178930
v 0.796635 -0.854788 -1.110003
v 0.835472 -0.926345 -1.061171
v 0.852858 -0.824274 -1.089218
v 0.866467 -0.909523 -1.049712
v 0.887605 -0.805416 -1.034802
v 0.885624 -0.899126 -1.019712
v 0.887605 -0.805416 -0.967540
v 0.885624 -0.899126 -0.982630
v 0.852858 -0.824274 -0.913124
v 0.866467 -0.909523 -0.952630
v 0.796635 -0.854789 -0.892339
v 0.835472 -0.926345 -0.941172
v 0.740412 -0.885303 -0.913125
v 0.804476 -0.943168 -0.952631
v 0.705665 -0.904161 -0.967540
v 0.785319 -0.953565 -0.982630
v 0.705665 -0.904161 -1.034802
v 0.785319 -0.953565 -1.019712
v 0.740412 -0.885303 -1.089218
v 0.804476 -0.943168 -1.049712
v 0.847727 -0.919694 -1.020363
v 0.835472 -0.926345 -1.024894
v 0.855301 -0.915583 -1.008502
v 0.855301 -0.915583 -0.993840
v 0.847727 -0.919694 -0.981979
v 0.835472 -0.926345 -0.977448
v 0.823216 -0.932997 -0.981979
v 0.815642 -0.937108 -0.993840
v 0.815642 -0.937108 -1.008502
v 0.823216 -0.932997 -1.020363
v 0.907796 -1.030372 -1.020363
v 0.895540 -1.037023 -1.024894
v 0.915370 -1.026261 -1.008502
v 0.915370 -1.026261 -0.993840
v 0.907796 -1.030372 -0.981979
v 0.895540 -1.037023 -0.977448
v 0.883285 -1.043674 -0.981979
v 0.875711 -1.047785 -0.993840
v 0.875711 -1.047785 -1.008502
v 0.883285 -1.043674 -1.020363
v 0.902112 -1.080626 -1.020363
v 0.890301 -1.073215 -1.024894
v 0.909412 -1.085206 -1.008502
v 0.909412 -1.085206 -0.993840
v 0.902112 -1.080626 -0.981979
v 0.890301 -1.073215 -0.977448
v 0.878490 -1.065804 -0.981979
v 0.871190 -1.061223 -0.993840
v 0.871190 -1.061223 -1.008502
v 0.878490 -1.065804 -1.020363
v 0.833188 -1.152759 -1.020363
v 0.822971 -1.143269 -1.024894
v 0.839502 -1.158624 -1.008502
v 0.839502 -1.158624 -0.993840
v 0.833188 -1.152759 -0.981979
v 0.822971 -1.143269 -0.977448
v 0.812755 -1.133779 -0.981979
v 0.806441 -1.127914 -0.993840
v 0.806441 -1.127914 -1.008502
v 0.812755 -1.133779 -1.020363
v -0.113565 -1.154887 0.272295
v -0.113565 -1.154887 -0.272295
v 0.137416 -1.154887 -0.272295
v 0.137416 -1.154887 0.272295
v -0.113565 -1.417824 0.272295
v -0.113565 -1.417824 -0.272295
v 0.137416 -1.417824 -0.272295
v 0.137416 -1.417824 0.272295
vt 0.000000 0.000000
vt 1.000000 0.000000
vt 1.000000 1.000000
vt 0.000000 1.000000
vt 0.000000 0.000000
vt 0.000000 1.000000
vt 1.000000 1.000000
vt 1.000000 0.000000
vt 1.000000 0.000000
vt 1.000000 1.000000
vt 0.000000 0.000000
vt 0.000000 1.000000
vt 1.000000 1.000000
vt 1.000000 0.000000
vt 0.000000 0.000000
vt 0.000000 1.000000
vt 1.000000 1.000000
vt 1.000000 0.000000
vt 1.000000 0.000000
vt 1.000000 1.000000
vt 1.000000 0.000000
vt 1.000000 0.000000
vt 1.000000 0.000000
vt 1.000000 0.000000
vt 1.000000 1.000000
vt 1.000000 1.000000
vt 1.000000 0.000000
vt 1.000000 1.000000
vt 1.000000 1.000000
vt 1.000000 1.000000
vt 1.000000 0.000000
vt 1.000000 1.000000
vt 1.000000 1.000000
vt 1.000000 0.000000
vt 1.000000 0.500000
vt 0.900000 0.500000
vt 0.900000 1.000000
vt 1.000000 1.000000
vt 0.800000 0.500000
vt 0.800000 1.000000
vt 0.700000 0.500000
vt 0.700000 1.000000
vt 0.600000 0.500000
vt 0.600000 1.000000
vt 0.500000 0.500000
vt 0.500000 1.000000
vt 0.400000 0.500000
vt 0.400000 1.000000
vt 0.300000 0.500000
vt 0.300000 1.000000
vt 0.200000 0.500000
vt 0.200000 1.000000
vt 0.700000 1.000000
vt 0.800000 1.000000
vt 0.100000 0.500000
vt 0.100000 1.000000
vt -0.000000 0.500000
vt -0.000000 1.000000
vt 0.750000 0.490000
vt 0.608932 0.444164
vt 0.521746 0.324164
vt 0.521746 0.175836
vt 0.608932 0.055836
vt 0.750000 0.010000
vt 0.891068 0.055836
vt 0.978254 0.175836
vt 0.978254 0.324164
vt 0.891068 0.444164
vt 0.700000 1.000000
vt 0.800000 1.000000
vt 0.900000 1.000000
vt -0.000000 1.000000
vt 0.100000 1.000000
vt 0.200000 1.000000
vt 0.300000 1.000000
vt 0.400000 1.000000
vt 0.500000 1.000000
vt 0.600000 1.000000
vt 1.000000 1.000000
vt -0.000000 1.000000
vt -0.000000 1.000000
vt 0.100000 1.000000
vt 0.100000 1.000000
vt 0.300000 1.000000
vt 0.400000 1.000000
vt 0.600000 1.000000
vt 0.900000 1.000000
vt 1.000000 1.000000
vt 0.200000 1.000000
vt 0.500000 1.000000
vt 0.300000 1.000000
vt 0.300000 1.000000
vt 0.400000 1.000000
vt 0.400000 1.000000
vt 0.600000 1.000000
vt 0.700000 1.000000
vt 0.900000 1.000000
vt 1.000000 1.000000
vt 0.200000 1.000000
vt 0.500000 1.000000
vt 0.800000 1.000000
vt 0.391068 0.444164
vt 0.478254 0.324164
vt 0.478254 0.175836
vt 0.391068 0.055836
vt 0.250000 0.010000
vt 0.108932 0.055836
vt 0.021746 0.175836
vt 0.021746 0.324164
vt 0.108932 0.444164
vt 0.250000 0.490000
vt 0.600000 1.000000
vt 0.700000 1.000000
vt 0.900000 1.000000
vt 1.000000 1.000000
vt 0.200000 1.000000
vt 0.500000 1.000000
vt 0.800000 1.000000
vt 0.100000 1.000000
vt -0.000000 1.000000
vt 1.000000 0.500000
vt 0.900000 0.500000
vt 0.900000 1.000000
vt 1.000000 1.000000
vt 0.800000 0.500000
vt 0.800000 1.000000
vt 0.700000 0.500000
vt 0.700000 1.000000
vt 0.600000 0.500000
vt 0.600000 1.000000
vt 0.500000 0.500000
vt 0.500000 1.000000
vt 0.400000 0.500000
vt 0.400000 1.000000
vt 0.300000 0.500000
vt 0.300000 1.000000
vt 0.200000 0.500000
vt 0.200000 1.000000
vt 0.700000 1.000000
vt 0.800000 1.000000
vt 0.100000 0.500000
vt 0.100000 1.000000
vt -0.000000 0.500000
vt -0.000000 1.000000
vt 0.750000 0.490000
vt 0.608932 0.444164
vt 0.521746 0.324164
vt 0.521746 0.175836
vt 0.608932 0.055836
vt 0.750000 0.010000
vt 0.891068 0.055836
vt 0.978254 0.175836
vt 0.978254 0.324164
vt 0.891068 0.444164
vt 0.700000 1.000000
vt 0.800000 1.000000
vt 0.900000 1.000000
vt -0.000000 1.000000
vt 0.100000 1.000000
vt 0.200000 1.000000
vt 0.300000 1.000000
vt 0.400000 1.000000
vt 0.500000 1.000000
vt 0.600000 1.000000
vt 1.000000 1.000000
vt -0.000000 1.000000
vt -0.000000 1.000000
vt 0.100000 1.000000
vt 0.100000 1.000000
vt 0.300000 1.000000
vt 0.400000 1.000000
vt 0.600000 1.000000
vt 0.900000 1.000000
vt 1.000000 1.000000
vt 0.200000 1.000000
vt 0.500000 1.000000
vt 0.300000 1.000000
vt 0.300000 1.000000
vt 0.400000 1.000000
vt 0.400000 1.000000
vt 0.600000 1.000000
vt 0.700000 1.000000
vt 0.900000 1.000000
vt 1.000000 1.000000
vt 0.200000 1.000000
vt 0.500000 1.000000
vt 0.800000 1.000000
vt 0.391068 0.444164
vt 0.478254 0.324164
vt 0.478254 0.175836
vt 0.391068 0.055836
vt 0.250000 0.010000
vt 0.108932 0.055836
vt 0.021746 0.175836
vt 0.021746 0.324164
vt 0.108932 0.444164
vt 0.250000 0.490000
vt 0.600000 1.000000
vt 0.700000 1.000000
vt 0.900000 1.000000
vt 1.000000 1.000000
vt 0.200000 1.000000
vt 0.500000 1.000000
vt 0.800000 1.000000
vt 0.100000 1.000000
vt -0.000000 1.000000
vt 1.000000 0.500000
vt 0.900000 0.500000
vt 0.900000 1.000000
vt 1.000000 1.000000
vt 0.800000 0.500000
vt 0.800000 1.000000
vt 0.700000 0.500000
vt 0.700000 1.000000
vt 0.600000 0.500000
vt 0.600000 1.000000
vt 0.500000 0.500000
vt 0.500000 1.000000
vt 0.400000 0.500000
vt 0.400000 1.000000
vt 0.300000 0.500000
vt 0.300000 1.000000
vt 0.200000 0.500000
vt 0.200000 1.000000
vt 0.700000 1.000000
vt 0.800000 1.000000
vt 0.100000 0.500000
vt 0.100000 1.000000
vt -0.000000 0.500000
vt -0.000000 1.000000
vt 0.750000 0.490000
vt 0.608932 0.444164
vt 0.521746 0.324164
vt 0.521746 0.175836
vt 0.608932 0.055836
vt 0.750000 0.010000
vt 0.891068 0.055836
vt 0.978254 0.175836
vt 0.978254 0.324164
vt 0.891068 0.444164
vt 0.700000 1.000000
vt 0.800000 1.000000
vt 0.900000 1.000000
vt -0.000000 1.000000
vt 0.100000 1.000000
vt 0.200000 1.000000
vt 0.300000 1.000000
vt 0.400000 1.000000
vt 0.500000 1.000000
vt 0.600000 1.000000
vt 1.000000 1.000000
vt -0.000000 1.000000
vt -0.000000 1.000000
vt 0.100000 1.000000
vt 0.100000 1.000000
vt 0.300000 1.000000
vt 0.400000 1.000000
vt 0.600000 1.000000
vt 0.900000 1.000000
vt 1.000000 1.000000
vt 0.200000 1.000000
vt 0.500000 1.000000
vt 0.300000 1.000000
vt 0.300000 1.000000
vt 0.400000 1.000000
vt 0.400000 1.000000
vt 0.600000 1.000000
vt 0.700000 1.000000
vt 0.900000 1.000000
vt 1.000000 1.000000
vt 0.200000 1.000000
vt 0.500000 1.000000
vt 0.800000 1.000000
vt 0.391068 0.444164
vt 0.478254 0.324164
vt 0.478254 0.175836
vt 0.391068 0.055836
vt 0.250000 0.010000
vt 0.108932 0.055836
vt 0.021746 0.175836
vt 0.021746 0.324164
vt 0.108932 0.444164
vt 0.250000 0.490000
vt 0.600000 1.000000
vt 0.700000 1.000000
vt 0.900000 1.000000
vt 1.000000 1.000000
vt 0.200000 1.000000
vt 0.500000 1.000000
vt 0.800000 1.000000
vt 0.100000 1.000000
vt -0.000000 1.000000
vt 1.000000 0.000000
vt 1.000000 0.000000
vt 1.000000 0.000000
vt 1.000000 1.000000
vt 1.000000 1.000000
vt 1.000000 1.000000
vn 1.0000 0.0000 0.0000
vn -1.0000 0.0000 0.0000
vn 0.0000 1.0000 0.0000
vn 0.0000 -1.0000 0.0000
vn 0.0000 0.0000 -1.0000
vn 1.0000 0.0000 0.0055
vn 0.9999 -0.0111 0.0000
vn 0.9999 0.0111 0.0000
vn 1.0000 0.0000 -0.0055
vn 0.0000 0.0000 1.0000
vn 0.4723 -0.3074 -0.8261
vn 0.8540 -0.1003 -0.5106
vn 0.9998 -0.0211 0.0000
vn 0.8540 -0.1003 0.5106
vn 0.4723 -0.3074 0.8261
vn 0.0004 -0.5635 0.8261
vn -0.3813 -0.7707 0.5106
vn -0.5271 -0.8498 0.0000
vn 0.4770 -0.8789 0.0000
vn -0.3813 -0.7707 -0.5106
vn 0.0004 -0.5635 -0.8261
vn -0.4770 0.8789 -0.0000
vn 0.8789 0.4770 0.0000
vn -0.3501 0.0602 -0.9348
vn -0.2716 -0.1474 -0.9511
vn -0.7110 -0.3859 0.5878
vn 0.7110 0.3859 0.5878
vn 0.2716 0.1474 -0.9511
vn -0.8789 -0.4770 0.0000
vn 0.2716 0.1474 0.9511
vn 0.7110 0.3859 -0.5878
vn -0.7110 -0.3859 -0.5878
vn -0.2716 -0.1474 0.9511
vn -0.5832 0.5651 0.5835
vn -0.8253 0.2162 0.5217
vn 0.8430 -0.0899 0.5303
vn 0.3508 -0.0443 -0.9354
vn -0.9478 0.3189 0.0000
vn 0.3508 -0.0443 0.9354
vn 0.8430 -0.0899 -0.5303
vn -0.8253 0.2162 -0.5217
vn -0.3501 0.0602 0.9348
vn 0.9949 -0.1006 0.0000
vn -0.6806 -0.7327 0.0000
vn 0.5875 -0.5604 0.5839
vn 0.2252 -0.2158 -0.9501
vn -0.7175 0.6966 0.0000
vn 0.2252 -0.2158 0.9501
vn 0.5875 -0.5604 -0.5839
vn -0.5832 0.5651 -0.5835
vn -0.2247 0.2166 0.9501
vn 0.7242 -0.6896 0.0000
vn -0.2247 0.2166 -0.9501
vn -0.2246 0.2166 -0.9501
usemtl None
s off
f 1/1/1 2/2/1 4/3/1 3/4/1
f 5/5/2 7/6/2 8/7/2 6/8/2
f 2/2/3 11/9/3 12/10/3 4/3/3
f 5/5/3 14/11/3 13/12/3 7/6/3
f 8/7/4 16/13/4 15/14/4 6/8/4
f 1/1/5 10/15/5 11/9/5 2/2/5
f 10/15/6 14/11/6 15/14/6 11/9/6
f 11/9/7 15/14/7 16/13/7 12/10/7
f 9/16/8 13/12/8 14/11/8 10/15/8
f 12/10/9 16/13/9 13/12/9 9/16/9
f 3/4/4 9/16/4 10/15/4 1/1/4
f 7/6/5 13/12/5 16/13/5 8/7/5
f 6/8/10 15/14/10 14/11/10 5/5/10
f 4/3/10 12/10/10 9/16/10 3/4/10
f 18/17/3 17/18/3 19/19/3 20/20/3
f 21/21/5 25/22/5 28/23/5 24/24/5
f 17/18/10 21/21/10 24/24/10 19/19/10
f 18/17/2 22/25/2 21/21/2 17/18/2
f 19/19/1 24/24/1 23/26/1 20/20/1
f 20/20/5 23/26/5 22/25/5 18/17/5
f 28/23/1 32/27/1 31/28/1 27/29/1
f 22/25/3 26/30/3 25/22/3 21/21/3
f 24/24/3 28/23/3 27/29/3 23/26/3
f 23/26/10 27/29/10 26/30/10 22/25/10
f 32/27/4 216/31/4 215/32/4 31/28/4
f 27/29/5 31/28/5 30/33/5 26/30/5
f 25/22/10 29/34/10 32/27/10 28/23/10
f 26/30/2 30/33/2 29/34/2 25/22/2
f 33/35/11 35/36/11 36/37/11 34/38/11
f 35/36/12 37/39/12 38/40/12 36/37/12
f 37/39/13 39/41/13 40/42/13 38/40/13
f 39/41/14 41/43/14 42/44/14 40/42/14
f 41/43/15 43/45/15 44/46/15 42/44/15
f 43/45/16 45/47/16 46/48/16 44/46/16
f 45/47/17 47/49/17 48/50/17 46/48/17
f 47/49/18 49/51/18 50/52/18 48/50/18
f 40/42/19 56/53/19 55/54/19 38/40/19
f 49/51/20 51/55/20 52/56/20 50/52/20
f 51/55/21 33/57/21 34/58/21 52/56/21
f 33/59/22 51/60/22 49/61/22 47/62/22 45/63/22 43/64/22 41/65/22 39/66/22 37/67/22 35/68/22
f 56/53/23 66/69/23 65/70/23 55/54/23
f 38/40/19 55/54/19 53/71/19 36/37/19
f 34/58/19 54/72/19 62/73/19 52/56/19
f 52/56/19 62/73/19 61/74/19 50/52/19
f 50/52/19 61/74/19 60/75/19 48/50/19
f 48/50/19 60/75/19 59/76/19 46/48/19
f 46/48/19 59/76/19 58/77/19 44/46/19
f 44/46/19 58/77/19 57/78/19 42/44/19
f 42/44/19 57/78/19 56/53/19 40/42/19
f 36/37/19 53/71/19 54/79/19 34/38/19
f 64/80/24 74/81/24 82/82/24 72/83/24
f 54/72/25 64/80/25 72/83/25 62/73/25
f 60/75/26 70/84/26 69/85/26 59/76/26
f 57/78/27 67/86/27 66/69/27 56/53/27
f 53/71/28 63/87/28 64/88/28 54/79/28
f 61/74/29 71/89/29 70/84/29 60/75/29
f 58/77/30 68/90/30 67/86/30 57/78/30
f 55/54/31 65/70/31 63/87/31 53/71/31
f 62/73/32 72/83/32 71/89/32 61/74/32
f 59/76/33 69/85/33 68/90/33 58/77/33
f 80/91/34 90/92/34 89/93/34 79/94/34
f 70/84/35 80/91/35 79/94/35 69/85/35
f 67/86/36 77/95/36 76/96/36 66/69/36
f 63/87/37 73/97/37 74/98/37 64/88/37
f 71/89/38 81/99/38 80/91/38 70/84/38
f 68/90/39 78/100/39 77/95/39 67/86/39
f 65/70/40 75/101/40 73/97/40 63/87/40
f 72/83/41 82/82/41 81/99/41 71/89/41
f 69/85/42 79/94/42 78/100/42 68/90/42
f 66/69/43 76/96/43 75/101/43 65/70/43
f 83/102/44 85/103/44 86/104/44 87/105/44 88/106/44 89/107/44 90/108/44 91/109/44 92/110/44 84/111/44
f 77/95/45 87/112/45 86/113/45 76/96/45
f 73/97/46 83/114/46 84/115/46 74/98/46
f 81/99/47 91/116/47 90/92/47 80/91/47
f 78/100/48 88/117/48 87/112/48 77/95/48
f 75/101/49 85/118/49 83/114/49 73/97/49
f 82/82/50 92/119/50 91/116/50 81/99/50
f 79/94/51 89/93/51 88/117/51 78/100/51
f 76/96/52 86/113/52 85/118/52 75/101/52
f 74/81/53 84/120/53 92/119/53 82/82/53
f 93/121/11 95/122/11 96/123/11 94/124/11
f 95/122/12 97/125/12 98/126/12 96/123/12
f 97/125/13 99/127/13 100/128/13 98/126/13
f 99/127/14 101/129/14 102/130/14 100/128/14
f 101/129/15 103/131/15 104/132/15 102/130/15
f 103/131/16 105/133/16 106/134/16 104/132/16
f 105/133/17 107/135/17 108/136/17 106/134/17
f 107/135/18 109/137/18 110/138/18 108/136/18
f 100/128/19 116/139/19 115/140/19 98/126/19
f 109/137/20 111/141/20 112/142/20 110/138/20
f 111/141/21 93/143/21 94/144/21 112/142/21
f 93/145/22 111/146/22 109/147/22 107/148/22 105/149/22 103/150/22 101/151/22 99/152/22 97/153/22 95/154/22
f 116/139/23 126/155/23 125/156/23 115/140/23
f 98/126/19 115/140/19 113/157/19 96/123/19
f 94/144/19 114/158/19 122/159/19 112/142/19
f 112/142/19 122/159/19 121/160/19 110/138/19
f 110/138/19 121/160/19 120/161/19 108/136/19
f 108/136/19 120/161/19 119/162/19 106/134/19
f 106/134/19 119/162/19 118/163/19 104/132/19
f 104/132/19 118/163/19 117/164/19 102/130/19
f 102/130/19 117/164/19 116/139/19 100/128/19
f 96/123/19 113/157/19 114/165/19 94/124/19
f 124/166/24 134/167/24 142/168/24 132/169/24
f 114/158/25 124/166/25 132/169/25 122/159/25
f 120/161/26 130/170/26 129/171/26 119/162/26
f 117/164/27 127/172/27 126/155/27 116/139/27
f 113/157/28 123/173/28 124/174/28 114/165/28
f 121/160/29 131/175/29 130/170/29 120/161/29
f 118/163/30 128/176/30 127/172/30 117/164/30
f 115/140/31 125/156/31 123/173/31 113/157/31
f 122/159/32 132/169/32 131/175/32 121/160/32
f 119/162/33 129/171/33 128/176/33 118/163/33
f 140/177/34 150/178/34 149/179/34 139/180/34
f 130/170/35 140/177/35 139/180/35 129/171/35
f 127/172/36 137/181/36 136/182/36 126/155/36
f 123/173/37 133/183/37 134/184/37 124/174/37
f 131/175/38 141/185/38 140/177/38 130/170/38
f 128/176/39 138/186/39 137/181/39 127/172/39
f 125/156/40 135/187/40 133/183/40 123/173/40
f 132/169/41 142/168/41 141/185/41 131/175/41
f 129/171/42 139/180/42 138/186/42 128/176/42
f 126/155/43 136/182/43 135/187/43 125/156/43
f 143/188/44 145/189/44 146/190/44 147/191/44 148/192/44 149/193/44 150/194/44 151/195/44 152/196/44 144/197/44
f 137/181/45 147/198/45 146/199/45 136/182/45
f 133/183/46 143/200/46 144/201/46 134/184/46
f 141/185/47 151/202/47 150/178/47 140/177/47
f 138/186/48 148/203/48 147/198/48 137/181/48
f 135/187/49 145/204/49 143/200/49 133/183/49
f 142/168/50 152/205/50 151/202/50 141/185/50
f 139/180/51 149/179/51 148/203/51 138/186/51
f 136/182/52 146/199/52 145/204/52 135/187/52
f 134/167/53 144/206/53 152/205/53 142/168/53
f 153/207/11 155/208/11 156/209/11 154/210/11
f 155/208/12 157/211/12 158/212/12 156/209/12
f 157/211/13 159/213/13 160/214/13 158/212/13
f 159/213/14 161/215/14 162/216/14 160/214/14
f 161/215/15 163/217/15 164/218/15 162/216/15
f 163/217/16 165/219/16 166/220/16 164/218/16
f 165/219/17 167/221/17 168/222/17 166/220/17
f 167/221/18 169/223/18 170/224/18 168/222/18
f 160/214/19 176/225/19 175/226/19 158/212/19
f 169/223/20 171/227/20 172/228/20 170/224/20
f 171/227/21 153/229/21 154/230/21 172/228/21
f 153/231/22 171/232/22 169/233/22 167/234/22 165/235/22 163/236/22 161/237/22 159/238/22 157/239/22 155/240/22
f 176/225/23 186/241/23 185/242/23 175/226/23
f 158/212/19 175/226/19 173/243/19 156/209/19
f 154/230/19 174/244/19 182/245/19 172/228/19
f 172/228/19 182/245/19 181/246/19 170/224/19
f 170/224/19 181/246/19 180/247/19 168/222/19
f 168/222/19 180/247/19 179/248/19 166/220/19
f 166/220/19 179/248/19 178/249/19 164/218/19
f 164/218/19 178/249/19 177/250/19 162/216/19
f 162/216/19 177/250/19 176/225/19 160/214/19
f 156/209/19 173/243/19 174/251/19 154/210/19
f 184/252/24 194/253/24 202/254/24 192/255/24
f 174/244/25 184/252/25 192/255/25 182/245/25
f 180/247/26 190/256/26 189/257/26 179/248/26
f 177/250/27 187/258/27 186/241/27 176/225/27
f 173/243/28 183/259/28 184/260/28 174/251/28
f 181/246/29 191/261/29 190/256/29 180/247/29
f 178/249/30 188/262/30 187/258/30 177/250/30
f 175/226/31 185/242/31 183/259/31 173/243/31
f 182/245/32 192/255/32 191/261/32 181/246/32
f 179/248/33 189/257/33 188/262/33 178/249/33
f 200/263/34 210/264/34 209/265/34 199/266/34
f 190/256/35 200/263/35 199/266/35 189/257/35
f 187/258/36 197/267/36 196/268/36 186/241/36
f 183/259/37 193/269/37 194/270/37 184/260/37
f 191/261/38 201/271/38 200/263/38 190/256/38
f 188/262/39 198/272/39 197/267/39 187/258/39
f 185/242/40 195/273/40 193/269/40 183/259/40
f 192/255/41 202/254/41 201/271/41 191/261/41
f 189/257/42 199/266/42 198/272/42 188/262/42
f 186/241/43 196/268/43 195/273/43 185/242/43
f 203/274/44 205/275/44 206/276/44 207/277/44 208/278/44 209/279/44 210/280/44 211/281/44 212/282/44 204/283/44
f 197/267/45 207/284/45 206/285/45 196/268/45
f 193/269/46 203/286/46 204/287/46 194/270/46
f 201/271/47 211/288/47 210/264/47 200/263/47
f 198/272/48 208/289/48 207/284/48 197/267/48
f 195/273/49 205/290/49 203/286/49 193/269/49
f 202/254/50 212/291/50 211/288/50 201/271/50
f 199/266/51 209/265/51 208/289/51 198/272/51
f 196/268/52 206/285/52 205/290/52 195/273/52
f 194/253/54 204/292/54 212/291/54 202/254/54
f 213/293/10 217/294/10 220/295/10 216/31/10
f 31/28/4 215/32/4 214/296/4 30/33/4
f 29/34/4 213/293/4 216/31/4 32/27/4
f 30/33/4 214/296/4 213/293/4 29/34/4
f 218/297/4 219/298/4 220/295/4 217/294/4
f 214/296/2 218/297/2 217/294/2 213/293/2
f 216/31/1 220/295/1 219/298/1 215/32/1
f 215/32/5 219/298/5 218/297/5 214/296/5
